<?xml version="1.0" encoding="utf-8"?>
<!-- Generator: Adobe Illustrator 24.1.1, SVG Export Plug-In . SVG Version: 6.00 Build 0)  -->
<svg version="1.1" id="Layer_1" xmlns="http://www.w3.org/2000/svg" xmlns:xlink="http://www.w3.org/1999/xlink" x="0px" y="0px"
	 viewBox="0 0 512 512" style="enable-background:new 0 0 512 512;" xml:space="preserve">
<style type="text/css">
	.st0{fill:#FFFFFF;}
	.st1{fill:#EAEAEA;}
	.st2{fill:#F9AC00;}
</style>
<g>
	<path class="st0" d="M19.5,153h473c9.2,0,16.7,7.5,16.7,16.7v172.5c0,9.2-7.5,16.7-16.7,16.7h-473c-9.2,0-16.7-7.5-16.7-16.7V169.7
		C2.8,160.5,10.3,153,19.5,153z"/>
	<path class="st1" d="M19.5,150.3h473c10.8,0,19.5,8.7,19.5,19.5v172.5c0,10.8-8.7,19.5-19.5,19.5h-473C8.7,361.7,0,353,0,342.3
		V169.7C0,159,8.7,150.3,19.5,150.3z M19.5,155.8c-7.7,0-13.9,6.2-13.9,13.9v172.5c0,7.7,6.2,13.9,13.9,13.9h473
		c7.7,0,13.9-6.2,13.9-13.9V169.7c0-7.7-6.2-13.9-13.9-13.9H19.5z"/>
	<polygon points="272.7,190.5 272.7,275.4 303.9,244.2 319.6,259.9 262,317.6 203.6,259.2 219.3,243.5 250.4,274.5 250.4,190.5 	"/>
	<polygon points="72.2,313.2 72.2,247.5 112.4,287.8 153,247.2 153,312.6 175.2,312.6 175.2,193.5 112.4,256.3 49.9,193.7 
		49.9,313.2 	"/>
	<polygon class="st2" points="447.8,186.9 463.6,202.7 416.4,249.8 462.1,295.5 446.4,311.2 400.7,265.5 355,311.2 339.3,295.5 
		384.9,249.8 337.8,202.7 353.5,186.9 400.7,234.1 	"/>
</g>
</svg>
