<?xml version="1.0" standalone="no"?>
<!DOCTYPE svg PUBLIC "-//W3C//DTD SVG 20010904//EN"
 "http://www.w3.org/TR/2001/REC-SVG-20010904/DTD/svg10.dtd">
<svg version="1.0" xmlns="http://www.w3.org/2000/svg"
 viewBox="0 0 3128.000000 3128.000000"
 preserveAspectRatio="xMidYMid meet">

<g transform="translate(0.000000,3128.000000) scale(0.100000,-0.100000)"
fill="#000000" stroke="none">
<path d="M17140 31273 c-1112 -26 -2221 -198 -3300 -509 -286 -83 -727 -230
-985 -329 -110 -43 -209 -79 -220 -82 -12 -2 -95 13 -185 35 -188 46 -369 83
-552 112 -130 21 -380 50 -433 50 l-30 0 -47 -167 c-61 -213 -93 -349 -128
-537 -16 -81 -32 -152 -37 -156 -4 -5 -87 -53 -183 -108 -625 -355 -1228 -765
-1780 -1211 -2532 -2043 -4247 -4933 -4835 -8146 -103 -561 -166 -1092 -207
-1740 -17 -268 -17 -1100 0 -1315 56 -715 152 -1385 316 -2203 l72 -357 -51 0
c-64 -1 -115 -24 -217 -101 -548 -415 -870 -859 -964 -1334 -25 -125 -25 -405
0 -530 49 -246 157 -482 324 -708 l58 -79 -22 -143 c-101 -651 -148 -1322
-148 -2115 0 -501 8 -735 40 -1120 158 -1943 710 -3486 1655 -4621 133 -160
478 -505 639 -639 658 -547 1400 -914 2305 -1139 239 -59 390 -86 710 -125
1434 -175 3331 -308 5230 -366 1537 -47 4140 -51 5630 -10 2113 59 4089 193
5594 380 419 53 709 115 1096 235 2026 630 3365 2175 3936 4541 321 1333 391
2986 194 4594 -34 271 -52 386 -69 417 -12 25 -10 30 56 112 200 248 330 514
384 786 28 135 25 415 -4 552 -75 347 -263 665 -580 982 l-125 124 48 201
c186 789 291 1489 351 2326 22 305 30 1190 15 1517 -25 522 -69 970 -142 1458
-35 228 -106 626 -143 792 -14 62 -32 181 -41 265 -35 333 -88 657 -153 918
l-38 155 -62 5 -63 5 -73 215 c-593 1738 -1491 3284 -2707 4660 -877 992
-1956 1894 -3069 2565 -80 48 -147 89 -149 91 -2 2 -12 70 -22 151 -34 270
-91 566 -148 780 l-11 41 -98 -4 c-376 -19 -751 -73 -1218 -176 l-51 -11 -229
91 c-1647 655 -3378 967 -5134 925z m644 -843 c1153 -35 2198 -207 3279 -542
108 -34 197 -64 197 -67 0 -3 -51 -33 -113 -65 -339 -179 -607 -362 -874 -598
l-121 -108 -154 59 c-800 306 -1655 461 -2533 461 -820 0 -1597 -129 -2344
-389 l-174 -61 -81 73 c-289 258 -595 471 -944 652 -40 21 -69 41 -65 46 12
12 413 124 675 189 860 214 1788 337 2673 353 72 2 157 4 190 5 33 1 208 -3
389 -8z m-5832 -455 c939 -173 1793 -532 2396 -1008 l83 -65 -158 -83 c-290
-151 -603 -349 -852 -537 -540 -409 -1002 -924 -1310 -1461 l-71 -124 -54 114
c-122 256 -219 581 -275 914 -49 292 -56 390 -56 820 0 429 6 524 51 862 31
237 97 593 109 593 2 0 64 -11 137 -25z m11523 -87 c40 -184 81 -577 95 -912
31 -770 -82 -1467 -335 -2056 -58 -137 -224 -440 -241 -440 -2 0 -33 60 -70
133 -314 627 -813 1208 -1446 1684 -213 161 -537 368 -755 483 -35 18 -63 36
-63 39 0 9 149 126 265 208 598 423 1489 742 2435 872 104 14 109 13 115 -11z
m-5375 -852 c413 -43 777 -110 1146 -211 1537 -422 2769 -1394 3308 -2610 133
-301 225 -631 272 -980 25 -181 25 -617 1 -800 -97 -723 -397 -1384 -892
-1960 -358 -418 -683 -713 -1066 -972 -1297 -874 -3007 -1199 -4639 -882
-1395 271 -2628 986 -3320 1924 -80 108 -88 121 -70 110 8 -5 -6 18 -29 51
-72 99 -158 228 -216 324 -621 1024 -681 2225 -165 3296 480 997 1394 1795
2615 2284 585 233 1253 385 1945 439 183 15 928 6 1110 -13z m-6966 -403 c-7
-35 12 -493 26 -633 44 -438 140 -851 285 -1220 56 -144 195 -421 275 -547
l71 -113 -36 -112 c-76 -240 -127 -483 -161 -768 -24 -199 -24 -608 0 -815 91
-790 397 -1511 919 -2165 151 -189 426 -476 611 -637 l58 -51 -80 -204 c-170
-432 -357 -970 -487 -1402 -36 -121 -67 -222 -69 -224 -2 -2 -78 3 -168 10
-219 17 -1075 17 -1298 0 -521 -41 -976 -111 -1419 -218 l-184 -44 -226 222
c-678 666 -1363 1227 -2096 1714 -266 178 -358 233 -498 299 -314 148 -572
175 -750 78 -176 -97 -326 -352 -417 -712 -80 -318 -117 -669 -127 -1201 -14
-795 68 -1844 233 -2960 19 -129 37 -255 41 -280 5 -40 0 -57 -41 -137 -119
-238 -225 -565 -286 -887 -11 -61 -22 -111 -24 -113 -8 -9 -113 656 -155 987
-100 780 -115 1370 -56 2185 106 1471 464 2912 1060 4265 92 210 363 760 470
955 1058 1924 2545 3511 4365 4657 85 54 158 98 162 98 4 0 5 -12 2 -27z
m13391 -466 c1189 -849 2223 -1898 3057 -3102 650 -938 1186 -1988 1559 -3057
l58 -167 -37 -7 c-605 -105 -1266 -315 -1779 -564 -461 -224 -793 -444 -1129
-747 -102 -93 -104 -94 -131 -79 -56 28 -443 166 -608 216 -665 201 -1267 301
-1997 330 -288 12 -681 2 -968 -24 -85 -8 -158 -12 -161 -8 -3 4 -30 70 -59
147 -64 169 -177 437 -254 599 l-56 118 125 130 c509 531 876 1162 1064 1827
168 594 192 1212 71 1811 -16 80 -40 183 -52 230 l-23 85 95 127 c378 502 626
1142 729 1879 18 125 51 479 51 540 0 16 30 -1 153 -83 83 -56 215 -146 292
-201z m-2824 -6867 c90 -209 170 -412 164 -418 -2 -3 -78 -19 -167 -37 -346
-70 -627 -147 -968 -264 l-205 -71 -50 48 c-27 26 -71 67 -97 89 l-46 42 81
37 c374 172 786 420 1111 668 55 41 101 74 102 73 2 -2 35 -77 75 -167z
m-15406 28 c373 -122 1364 -839 2175 -1573 170 -153 450 -424 450 -434 0 -3
-64 -30 -143 -60 -78 -29 -193 -75 -254 -102 l-113 -48 -137 136 c-345 339
-719 646 -1090 894 -235 156 -351 209 -465 209 -53 0 -62 -3 -98 -36 -124
-112 -182 -406 -183 -924 0 -399 27 -775 94 -1313 l31 -247 -88 -96 c-150
-161 -241 -265 -327 -371 -65 -81 -83 -99 -89 -85 -23 57 -118 977 -153 1487
-41 597 -46 1434 -11 1775 44 420 111 668 212 780 36 40 41 42 80 36 23 -3 72
-15 109 -28z m23448 17 c23 -57 80 -550 98 -835 15 -238 6 -811 -16 -1015 -73
-687 -248 -1261 -526 -1727 l-72 -120 -92 179 c-394 765 -1003 1431 -1805
1975 -169 115 -347 224 -510 312 -58 31 -109 61 -113 65 -20 20 380 306 618
442 580 332 1363 587 2185 713 188 29 226 31 233 11z m-15898 -257 c492 -306
1060 -557 1638 -722 195 -56 514 -132 632 -151 22 -4 46 -9 54 -11 7 -2 -51
-50 -133 -109 -323 -231 -689 -516 -953 -742 l-139 -120 -160 54 c-330 113
-689 210 -1027 279 -189 39 -536 98 -635 110 -51 5 -62 10 -58 23 130 435 304
946 460 1352 30 79 60 156 65 171 l10 28 63 -44 c35 -24 117 -77 183 -118z
m5948 -675 c28 -21 79 -61 114 -89 l63 -52 -152 -80 c-184 -96 -410 -227 -573
-333 l-120 -78 -7 192 c-3 106 -9 217 -12 248 l-5 56 182 47 c100 25 236 64
302 85 66 21 128 39 139 40 10 1 41 -16 69 -36z m4045 12 c1590 -134 3004
-747 3987 -1730 699 -699 1106 -1501 1222 -2410 24 -196 24 -624 -1 -820 -84
-661 -331 -1286 -721 -1825 -37 -52 -89 -124 -113 -160 -263 -379 -607 -735
-1017 -1055 -144 -113 -475 -333 -645 -430 -807 -459 -1723 -733 -2743 -822
-235 -20 -829 -23 -1057 -5 -616 49 -1145 154 -1680 332 -1025 341 -1882 897
-2517 1634 l-51 59 35 76 c232 502 336 1205 273 1844 -29 282 -92 566 -192
854 l-60 174 61 257 c211 904 364 1755 443 2471 l22 203 141 106 c993 743
2262 1184 3635 1262 214 12 757 4 978 -15z m-5224 -291 c9 -68 7 -280 -4 -504
-27 -533 -109 -1200 -236 -1910 -51 -284 -160 -835 -172 -863 -5 -14 -25 8
-91 103 -75 108 -135 189 -241 321 -19 24 -27 38 -19 31 19 -14 16 -30 53 248
29 216 69 587 88 815 8 97 13 321 13 570 0 340 -3 430 -18 525 -31 206 -77
337 -145 412 -45 49 -93 63 -170 48 -248 -50 -919 -541 -1474 -1078 l-128
-125 -243 121 c-133 66 -266 130 -294 142 -29 13 -53 26 -53 30 0 11 404 332
640 507 237 176 511 369 709 497 l128 84 249 -11 c378 -16 866 8 1234 62 180
27 166 29 174 -25z m-6449 -874 c1292 -68 2427 -354 3455 -869 1098 -551 1908
-1299 2341 -2163 191 -380 312 -796 349 -1193 13 -144 13 -465 -1 -618 -62
-702 -294 -1212 -763 -1683 -277 -277 -547 -469 -925 -659 -769 -384 -1719
-601 -3021 -687 -267 -18 -1503 -18 -1815 0 -854 49 -1176 81 -1662 167 -864
154 -1746 445 -2410 796 -83 45 -158 86 -167 92 -13 10 26 35 227 144 707 384
965 527 990 551 68 64 93 201 52 282 -57 113 -192 176 -300 138 -22 -8 -360
-188 -751 -401 -391 -213 -716 -387 -722 -387 -14 0 -187 136 -312 246 -458
402 -762 867 -891 1358 -52 200 -71 335 -76 553 -9 312 22 561 108 878 55 205
96 311 194 510 283 576 809 1181 1469 1689 831 640 1905 1051 3139 1201 198
24 522 52 662 58 183 8 660 6 830 -3z m17692 -1892 c-25 -1064 -190 -2143
-489 -3201 l-62 -217 -102 -60 c-56 -33 -105 -60 -108 -60 -3 0 32 75 77 168
448 910 560 1924 319 2882 l-39 155 88 116 c100 133 203 288 269 407 25 45 47
82 49 82 2 0 1 -123 -2 -272z m342 -3723 c124 -150 217 -318 268 -481 24 -81
27 -103 27 -249 0 -195 -16 -263 -103 -440 -130 -264 -340 -498 -676 -753
-1288 -976 -3982 -1776 -7330 -2177 -2658 -318 -5739 -381 -8580 -174 -2963
215 -5608 729 -7449 1449 l-106 42 5 36 c2 20 9 107 15 192 29 406 133 1333
165 1478 l6 23 37 -31 c87 -72 321 -245 429 -318 846 -564 1974 -986 3215
-1201 478 -84 885 -121 1773 -163 336 -16 1369 -16 1655 0 968 54 1772 179
2395 372 l99 31 691 -9 c1157 -16 2152 5 3305 69 l205 11 178 -71 c1292 -519
2800 -663 4232 -405 1497 270 2853 988 3750 1984 l113 126 143 63 c477 212
952 477 1274 710 l100 72 53 -58 c29 -32 79 -89 111 -128z m-11731 -1158 c195
-180 497 -414 735 -570 75 -50 134 -94 130 -98 -17 -15 -1845 -56 -2091 -47
l-83 3 153 102 c335 222 636 497 841 770 l62 81 90 -87 c50 -48 123 -117 163
-154z m11651 -1307 c28 -234 58 -574 70 -795 6 -99 13 -223 16 -275 l6 -95
-82 -100 c-46 -55 -159 -175 -252 -268 l-169 -167 33 -38 c341 -389 301 -358
374 -282 22 23 53 51 69 63 l29 21 -6 -225 c-12 -386 -51 -838 -108 -1234
-211 -1483 -690 -2669 -1440 -3570 -115 -138 -410 -437 -549 -555 -652 -557
-1420 -926 -2341 -1124 -134 -29 -372 -62 -754 -105 -1695 -191 -3655 -309
-5815 -352 -681 -13 -4141 -6 -4635 10 -940 30 -1436 49 -1945 76 -1210 64
-2248 146 -3250 256 l-375 41 -110 60 c-545 301 -1024 749 -1403 1315 -83 124
-174 274 -169 280 3 2 94 -19 203 -46 260 -65 606 -142 612 -137 7 8 103 469
100 485 -2 9 -73 30 -233 66 -500 115 -981 246 -1006 275 -24 28 -150 352
-229 587 -164 494 -295 1047 -384 1628 -34 220 -86 626 -86 671 0 21 13 18
253 -61 287 -95 574 -179 892 -261 223 -57 688 -164 693 -159 4 4 102 468 102
486 0 12 -35 23 -153 48 -460 100 -1032 258 -1457 402 -146 50 -272 92 -281
95 -13 5 -24 -13 -50 -88 l-34 -93 -7 90 c-40 534 -54 1180 -40 1752 7 251 14
458 16 460 2 3 93 -28 203 -67 2247 -813 5467 -1338 9073 -1480 838 -33 2300
-38 3065 -11 1768 63 3210 186 4705 402 3103 447 5511 1210 6745 2137 44 34
81 60 82 59 1 -1 11 -81 22 -177z" />
<path d="M15105 27183 c-67 -9 -192 -45 -269 -76 -421 -172 -705 -563 -742
-1019 l-7 -88 241 0 241 0 6 58 c21 180 87 318 211 444 214 216 542 270 818
133 214 -106 365 -325 391 -568 l7 -67 239 0 239 0 0 53 c0 28 -7 93 -15 142
-79 490 -477 896 -963 980 -78 14 -319 19 -397 8z"/>
<path d="M19390 27170 c-236 -50 -426 -155 -601 -329 -204 -204 -329 -471
-346 -743 l-6 -98 240 0 240 0 7 61 c21 202 122 386 277 504 278 210 665 190
915 -47 137 -130 204 -267 229 -470 l6 -48 241 0 241 0 -7 83 c-4 45 -14 114
-21 153 -90 475 -495 865 -978 944 -102 16 -340 11 -437 -10z"/>
<path d="M17270 25300 c-315 -33 -580 -146 -737 -313 -88 -95 -117 -160 -121
-272 -3 -73 0 -101 18 -147 49 -131 158 -237 343 -333 60 -31 124 -72 143 -91
83 -83 115 -222 79 -337 -42 -133 -197 -264 -391 -329 -58 -19 -89 -23 -199
-23 -116 0 -138 3 -210 28 -191 67 -346 211 -422 392 -23 55 -53 187 -53 235
l0 30 -256 0 -257 0 6 -102 c15 -280 133 -533 347 -748 213 -212 445 -322 740
-350 220 -21 445 23 650 125 156 79 309 204 409 337 l43 57 44 -59 c66 -87
210 -217 308 -278 358 -224 798 -247 1171 -63 244 121 424 299 545 539 73 147
110 280 125 460 l8 82 -262 0 -261 0 0 -47 c-1 -115 -69 -290 -153 -392 -225
-271 -620 -330 -909 -137 -111 74 -168 146 -194 245 -13 54 -14 74 -4 125 22
114 90 204 184 243 239 101 376 209 454 357 24 46 27 61 27 161 0 101 -2 115
-29 168 -98 200 -375 363 -716 421 -116 20 -355 28 -470 16z m607 -320 c67
-23 123 -74 123 -112 0 -34 -69 -94 -130 -113 -131 -40 -320 -26 -417 31 -119
69 -66 169 111 210 84 19 233 12 313 -16z"/>
<path d="M20710 18424 c-451 -58 -818 -310 -1017 -700 -83 -162 -127 -318
-139 -499 l-7 -95 260 0 260 0 7 70 c38 380 328 668 712 705 86 9 202 -7 302
-41 284 -94 496 -363 519 -656 l6 -78 260 0 260 0 -6 108 c-26 437 -295 841
-697 1046 -189 97 -340 135 -555 141 -71 2 -146 1 -165 -1z"/>
<path d="M25426 18419 c-486 -67 -891 -398 -1054 -861 -37 -103 -59 -212 -68
-337 l-7 -91 260 0 260 0 7 63 c25 226 134 428 297 552 213 161 474 203 726
116 120 -41 186 -84 288 -186 69 -69 101 -109 132 -170 51 -99 83 -203 92
-298 l6 -72 258 -3 257 -2 0 74 c0 160 -53 358 -142 527 -179 344 -507 594
-878 669 -120 25 -328 34 -434 19z"/>
<path d="M23030 16379 c-206 -24 -388 -76 -541 -155 -166 -86 -279 -189 -341
-313 -32 -63 -33 -71 -33 -181 0 -110 1 -118 33 -181 65 -129 176 -228 361
-323 119 -61 186 -122 223 -203 18 -38 22 -67 23 -143 0 -82 -4 -103 -26 -150
-46 -98 -164 -208 -294 -273 -138 -69 -316 -93 -465 -63 -167 34 -285 101
-405 228 -117 125 -176 260 -200 461 l-6 47 -276 0 -276 0 6 -97 c35 -559 445
-1044 991 -1173 493 -117 1013 66 1326 464 l51 66 58 -73 c335 -421 898 -592
1415 -430 213 67 421 204 580 382 188 212 316 530 316 787 l0 74 -273 0 -273
0 -11 -89 c-55 -436 -459 -732 -881 -645 -193 39 -378 161 -449 295 -25 49
-28 63 -28 154 0 89 3 106 28 157 41 83 115 146 224 191 205 85 360 213 430
354 37 75 38 80 38 183 0 103 -1 108 -39 184 -159 323 -729 529 -1286 465z
m-92 -333 c62 -17 138 -59 152 -86 78 -146 -273 -253 -523 -160 -104 39 -145
106 -101 168 21 30 96 67 164 81 30 6 64 13 75 15 34 8 177 -3 233 -18z" />
<path d="M13907 18359 c-231 -32 -468 -127 -666 -267 -130 -93 -291 -264 -383
-408 -89 -139 -174 -355 -205 -524 -24 -131 -24 -410 1 -535 60 -305 192 -552
410 -771 177 -176 352 -287 569 -359 161 -53 236 -66 427 -72 148 -4 193 -2
295 15 637 109 1124 610 1216 1250 15 111 6 412 -16 512 -127 576 -570 1018
-1143 1141 -112 24 -392 34 -505 18z m434 -846 c414 -144 590 -624 367 -1001
-45 -76 -159 -189 -238 -235 -111 -64 -206 -90 -340 -91 -219 -1 -391 77 -534
244 -44 51 -116 183 -132 240 l-6 25 28 -27 c78 -73 215 -93 309 -45 103 52
155 136 155 252 0 77 -18 128 -65 183 -88 104 -262 123 -376 40 -40 -29 -41
-29 -34 -6 4 13 22 52 40 89 67 132 177 238 318 305 104 49 181 64 312 60 91
-2 125 -8 196 -33z" />
<path d="M9970 17530 c-237 -63 -441 -262 -494 -483 -6 -26 -4 -25 31 14 54
60 122 89 203 88 118 -1 199 -50 249 -149 94 -190 -38 -406 -249 -405 -80 1
-142 27 -199 84 -23 23 -41 37 -41 33 0 -21 42 -128 72 -185 46 -87 173 -212
263 -259 293 -152 613 -99 833 137 192 206 236 502 112 760 -83 171 -222 292
-410 355 -96 32 -269 37 -370 10z" />
<path d="M7145 16171 c-52 -13 -91 -39 -132 -85 -115 -130 -69 -317 99 -402
29 -15 350 -189 713 -387 849 -463 761 -420 849 -415 140 7 227 94 234 233 5
83 -17 141 -71 192 -24 23 -1297 727 -1528 845 -42 21 -121 31 -164 19z"/>
<path d="M16650 16163 c-64 -26 -1523 -832 -1548 -856 -53 -50 -75 -102 -75
-177 -1 -146 102 -250 248 -250 37 0 75 7 100 19 119 54 1505 818 1533 844 54
51 76 102 75 177 0 74 -17 121 -62 173 -48 54 -104 77 -187 76 -38 0 -76 -3
-84 -6z"/>
<path d="M11716 15505 c-271 -51 -477 -178 -558 -343 -29 -59 -33 -76 -33
-147 0 -71 4 -89 33 -147 72 -148 249 -263 501 -328 l44 -12 -6 -156 c-8 -188
-31 -309 -81 -416 -243 -526 -914 -657 -1335 -261 -142 133 -236 328 -256 533
l-7 72 -235 0 -236 0 7 -87 c14 -170 66 -364 133 -497 102 -203 275 -394 468
-518 245 -158 554 -231 835 -199 353 42 665 211 879 477 l59 73 43 -57 c101
-135 291 -292 449 -372 82 -41 247 -97 348 -117 118 -23 356 -23 474 0 98 20
266 75 342 114 333 168 588 482 681 840 25 95 45 228 45 295 l0 38 -234 0
-233 0 -7 -71 c-36 -364 -291 -660 -644 -746 -99 -24 -294 -21 -395 6 -89 23
-216 84 -287 136 -126 92 -239 247 -291 398 -38 109 -49 192 -49 369 l0 148
28 6 c407 88 635 347 533 607 -59 151 -253 285 -502 348 -112 28 -396 36 -513
14z" />
<path d="M6838 14480 c-81 -24 -149 -100 -170 -189 -25 -108 30 -222 131 -273
l55 -28 856 0 856 0 55 28 c127 64 173 212 106 342 -27 52 -91 104 -145 120
-45 12 -1703 13 -1744 0z" />
<path d="M15360 14481 c-148 -45 -221 -207 -156 -347 27 -59 90 -116 145 -132
28 -9 271 -12 887 -12 801 0 851 1 889 19 91 41 144 126 145 229 0 107 -48
182 -145 228 l-50 24 -845 -1 c-465 0 -856 -4 -870 -8z"/>
<path d="M15281 13559 c-59 -18 -115 -64 -146 -121 -25 -45 -30 -64 -30 -123
1 -81 23 -134 77 -181 18 -16 375 -215 792 -443 703 -383 763 -413 817 -418
73 -7 135 14 192 66 55 49 77 101 77 181 0 75 -21 130 -67 176 -17 17 -376
218 -797 448 -720 393 -770 418 -824 422 -31 2 -72 -1 -91 -7z"/>
<path d="M27920 8453 c-385 -156 -1048 -352 -1620 -479 -69 -15 -126 -29 -128
-30 -2 -1 95 -466 103 -490 2 -8 63 2 192 31 602 138 1144 298 1604 475 100
38 183 71 185 73 4 4 -191 477 -196 476 -3 -1 -66 -26 -140 -56z"/>
<path d="M24010 7609 c-356 -42 -1132 -111 -1588 -141 -106 -6 -196 -14 -200
-17 -8 -6 20 -496 28 -504 17 -16 1524 114 1976 169 l50 6 -12 102 c-7 55 -20
170 -30 254 l-17 152 -26 -1 c-14 -1 -96 -10 -181 -20z"/>
<path d="M10186 7328 c-7 -32 -56 -481 -53 -484 3 -3 618 -62 817 -79 331 -27
1209 -80 1215 -73 3 4 23 502 20 506 -1 2 -85 7 -186 12 -539 28 -1112 71
-1539 116 -284 29 -269 29 -274 2z"/>
<path d="M19775 7339 c-110 -4 -508 -17 -885 -29 -376 -12 -686 -23 -688 -25
-2 -2 0 -117 4 -256 l7 -252 226 7 c703 21 1216 37 1441 46 140 6 279 10 309
10 l53 0 -6 98 c-3 53 -8 168 -12 255 l-6 157 -122 -2 c-66 0 -211 -5 -321 -9z"/>
<path d="M15690 7215 c-179 -7 -518 -18 -755 -24 -236 -7 -503 -14 -592 -17
l-163 -6 0 -255 0 -255 288 6 c525 12 1733 54 1739 60 2 2 0 115 -4 252 l-8
249 -90 1 c-49 1 -236 -4 -415 -11z" />
<path d="M27905 5214 c-424 -166 -1095 -364 -1615 -475 -58 -13 -108 -25 -112
-29 -8 -6 89 -479 101 -492 10 -11 459 93 786 182 477 130 1195 378 1187 410
-11 46 -187 460 -196 459 -6 0 -74 -25 -151 -55z"/>
<path d="M24085 4384 c-330 -41 -1018 -103 -1589 -144 -154 -11 -280 -21 -281
-23 -5 -6 31 -496 36 -502 18 -17 1711 128 1990 171 l35 5 -12 102 c-6 56 -20
171 -30 255 -10 95 -21 152 -28 151 -6 -1 -60 -8 -121 -15z"/>
<path d="M10186 4098 c-7 -32 -56 -482 -53 -485 4 -4 483 -52 727 -73 401 -34
1124 -80 1261 -80 l46 0 10 253 c6 138 10 253 9 253 0 1 -140 9 -311 18 -521
28 -1184 80 -1535 121 -158 19 -149 19 -154 -7z"/>
<path d="M19730 4105 c-179 -7 -595 -21 -925 -30 -330 -10 -602 -19 -603 -21
-2 -1 0 -116 4 -255 l7 -252 286 7 c380 9 1464 44 1619 52 l124 7 -6 96 c-3
53 -8 167 -12 254 l-6 157 -82 -1 c-44 -1 -227 -8 -406 -14z"/>
<path d="M15765 3985 c-547 -21 -969 -34 -1287 -41 l-298 -7 0 -255 0 -255
368 7 c479 10 1650 50 1657 58 3 3 2 117 -2 254 l-8 249 -45 1 c-25 1 -198 -4
-385 -11z" />
<!-- ================================================================= -->
<path d="M40425 18544 c-420 -63 -749 -227 -1026 -511 -310 -317 -477 -708
-496 -1158 -29 -699 348 -1332 972 -1635 275 -133 564 -188 887 -169 542 33
1034 317 1338 772 378 567 379 1350 3 1922 -257 391 -646 656 -1108 755 -82
18 -141 23 -320 25 -121 2 -233 1 -250 -1z m366 -779 c210 -36 380 -124 530
-274 226 -227 327 -538 274 -844 -36 -205 -122 -367 -279 -522 -140 -139 -283
-218 -471 -261 -114 -27 -321 -25 -427 4 -348 94 -600 337 -705 679 -24 80
-27 103 -27 253 -1 131 3 179 17 230 57 202 143 346 285 481 223 212 517 304
803 254z" />
<path d="M46933 18528 c-12 -13 -364 -759 -782 -1660 -618 -1329 -761 -1644
-761 -1677 0 -36 4 -44 33 -61 30 -19 50 -20 317 -20 168 0 300 4 323 11 74
20 97 53 202 284 l98 215 656 0 656 0 100 -217 c55 -120 111 -230 125 -246 14
-16 42 -32 65 -37 58 -14 595 -13 634 1 36 13 51 35 51 76 0 39 -1522 3312
-1551 3336 -15 12 -39 17 -83 17 -52 0 -66 -4 -83 -22z m271 -1856 c97 -211
176 -385 176 -388 0 -2 -162 -4 -360 -4 -198 0 -360 3 -360 8 0 20 354 782
360 775 5 -4 87 -180 184 -391z"/>
<path d="M36120 18503 c-8 -3 -25 -15 -37 -26 -23 -20 -23 -22 -23 -327 l0
-307 26 -24 26 -24 364 -3 364 -3 0 -1300 c0 -1413 -3 -1341 55 -1367 18 -8
117 -12 336 -12 l311 0 34 34 34 34 0 1306 0 1305 366 3 366 3 24 28 24 28 0
299 0 299 -24 28 -24 28 -1104 2 c-606 1 -1110 -1 -1118 -4z" />
<path d="M42939 18495 c-44 -24 -49 -57 -49 -347 0 -302 4 -327 60 -347 22 -7
147 -11 381 -11 l349 0 0 -1308 c0 -1430 -4 -1335 58 -1361 20 -8 117 -11 340
-9 l312 3 27 28 28 27 3 1310 2 1310 351 0 c372 0 394 2 419 49 6 12 10 132
10 315 l0 295 -24 28 -24 28 -1109 2 c-950 2 -1112 0 -1134 -12z"/>
<path d="M49384 18500 c-12 -5 -29 -19 -38 -32 -15 -20 -16 -172 -16 -1660 l0
-1637 24 -28 24 -28 939 -3 c693 -2 945 1 966 9 54 23 57 42 57 349 0 311 -3
329 -61 349 -22 8 -213 11 -610 11 l-579 0 0 1306 c0 876 -3 1312 -10 1325
-25 46 -50 49 -372 48 -167 0 -313 -4 -324 -9z"/>
<path d="M52154 18500 c-12 -5 -29 -19 -38 -32 -15 -20 -16 -172 -16 -1660 l0
-1637 24 -28 24 -28 950 0 950 0 26 24 26 24 0 307 0 307 -26 24 -26 24 -594
3 -594 2 0 1300 c0 986 -3 1305 -12 1325 -24 53 -41 55 -370 54 -167 0 -313
-4 -324 -9z"/>
<path d="M54224 18500 c-30 -12 -54 -49 -54 -84 0 -22 136 -235 545 -853 l545
-823 0 -784 0 -785 24 -28 24 -28 313 -3 c224 -2 321 1 341 9 60 25 58 -5 58
849 l0 782 499 741 c623 927 601 894 601 928 0 15 -11 41 -24 56 l-24 28 -351
3 -350 3 -30 -28 c-17 -15 -178 -246 -358 -512 -181 -266 -332 -484 -338 -484
-5 -1 -158 218 -340 486 -181 268 -340 497 -353 509 -22 23 -23 23 -365 25
-188 1 -352 -2 -363 -7z"/>
<path d="M36154 13769 c-18 -5 -46 -25 -63 -44 l-31 -36 2 -2649 3 -2649 21
-28 c11 -15 36 -38 54 -50 l33 -23 496 0 c465 0 499 1 531 19 19 10 44 34 55
52 20 33 20 57 25 1494 l5 1460 1525 -1533 c839 -843 1539 -1541 1555 -1550
19 -10 64 -17 122 -20 80 -4 98 -1 139 18 36 18 51 32 65 66 19 41 19 115 17
2672 l-3 2631 -21 27 c-11 15 -33 37 -48 48 -27 20 -41 21 -519 24 -328 2
-504 0 -529 -8 -20 -5 -50 -26 -67 -45 l-31 -36 0 -1400 c0 -770 -4 -1399 -8
-1397 -5 2 -700 669 -1546 1483 l-1537 1480 -107 2 c-59 1 -121 -3 -138 -8z"/>
<path d="M44698 13770 c-876 -58 -1646 -503 -2131 -1231 -386 -580 -540 -1303
-426 -2009 91 -572 361 -1101 770 -1509 695 -696 1707 -966 2684 -716 930 237
1693 980 1954 1900 78 276 105 477 105 785 0 255 -14 393 -60 600 -57 252
-111 406 -229 645 -376 763 -1086 1312 -1920 1484 -219 45 -525 66 -747 51z
m465 -1260 c310 -61 567 -199 798 -429 226 -227 362 -477 431 -795 32 -146 32
-445 0 -592 -91 -419 -318 -753 -673 -990 -161 -108 -338 -180 -549 -225 -140
-30 -428 -33 -565 -6 -478 96 -888 406 -1100 832 -165 332 -206 688 -119 1045
150 621 685 1101 1314 1179 116 15 339 6 463 -19z"/>
<path d="M57390 13758 c-30 -16 -52 -36 -67 -63 -12 -22 -564 -1207 -1227
-2633 -1081 -2323 -1206 -2598 -1206 -2642 0 -59 33 -104 88 -120 25 -8 193
-10 517 -8 l480 3 55 31 c30 17 67 46 82 65 15 19 94 183 176 364 l149 330
1053 0 1053 0 148 -323 c80 -177 158 -340 172 -361 33 -50 81 -86 132 -100 64
-17 976 -15 1019 3 50 21 76 60 76 117 0 42 -134 335 -1206 2641 -663 1426
-1215 2611 -1227 2633 -29 53 -91 85 -167 85 -38 0 -70 -7 -100 -22z m391
-2974 c159 -345 289 -631 289 -635 0 -11 -1160 -12 -1160 -1 -1 13 574 1272
578 1267 2 -2 134 -286 293 -631z"/>
<path d="M74657 13766 c-47 -17 -64 -32 -84 -70 -15 -28 -16 -273 -11 -2663 6
-2571 6 -2633 25 -2665 10 -18 34 -43 53 -55 l33 -23 496 0 c547 0 538 -1 585
63 21 28 21 31 26 1498 l5 1469 1524 -1532 c837 -843 1539 -1542 1560 -1553
26 -14 60 -21 122 -23 105 -5 167 17 199 70 20 33 20 41 20 2668 0 2547 -1
2636 -19 2670 -10 19 -36 45 -57 57 -39 23 -40 23 -534 23 -546 0 -537 1 -584
-63 -21 -28 -21 -32 -26 -1429 l-5 -1400 -1544 1486 -1544 1486 -101 0 c-58
-1 -117 -7 -139 -14z"/>
<path d="M83270 13773 c-971 -42 -1844 -583 -2319 -1438 -154 -277 -266 -612
-317 -947 -21 -143 -30 -506 -15 -665 85 -908 605 -1706 1405 -2157 881 -495
2017 -467 2841 71 202 133 408 306 436 368 21 46 23 88 6 127 -16 35 -634 693
-665 707 -12 6 -45 11 -71 11 -40 0 -58 -6 -97 -35 -128 -93 -251 -169 -328
-205 -344 -159 -720 -200 -1066 -116 -267 65 -500 197 -700 396 -336 336 -502
818 -450 1308 21 195 101 456 187 612 251 454 669 736 1169 791 397 43 851
-98 1159 -361 33 -28 76 -55 95 -60 74 -20 90 -8 342 253 417 432 426 442 434
482 12 67 -9 108 -94 182 -410 361 -837 566 -1338 643 -122 18 -437 42 -514
38 -19 -1 -64 -3 -100 -5z"/>
<path d="M48550 13682 c-19 -9 -45 -32 -57 -51 l-23 -34 0 -467 0 -467 23 -34
c47 -71 27 -69 660 -69 l567 0 0 -2083 0 -2082 24 -36 c49 -71 36 -70 598 -67
502 3 503 3 534 25 69 50 64 -133 64 2167 l0 2076 568 0 c632 0 612 -2 659 69
l23 34 0 467 0 467 -23 34 c-12 19 -38 42 -57 51 -33 17 -139 18 -1780 18
-1641 0 -1747 -1 -1780 -18z"/>
<path d="M63419 13679 c-20 -12 -45 -35 -55 -53 -19 -30 -19 -94 -19 -2631 0
-2582 0 -2600 20 -2634 11 -18 36 -42 55 -52 33 -18 79 -19 1056 -19 640 0
1061 4 1125 10 667 68 1212 460 1412 1016 55 154 72 263 71 464 -1 167 -3 195
-27 285 -101 378 -409 700 -879 920 -59 28 -107 53 -108 56 0 3 39 29 88 58
202 120 417 309 548 484 93 123 185 306 216 430 19 77 23 119 23 257 0 221
-27 349 -116 540 -226 483 -743 820 -1353 879 -69 7 -462 11 -1065 11 -951 0
-956 -1 -992 -21z m1903 -1121 c97 -32 160 -72 230 -146 102 -106 143 -224
135 -382 -12 -240 -161 -429 -397 -506 -47 -15 -104 -18 -397 -22 l-343 -4 0
547 0 547 348 -4 c341 -4 348 -5 424 -30z m53 -2091 c113 -40 210 -100 285
-177 71 -73 111 -142 135 -235 19 -74 19 -120 0 -210 -43 -206 -204 -377 -405
-430 -44 -12 -135 -15 -447 -15 l-393 0 0 551 0 550 373 -3 372 -3 80 -28z"/>
<path d="M68540 13682 c-19 -9 -45 -32 -57 -51 l-23 -34 0 -1698 c0 -1877 -2
-1802 64 -2062 91 -354 272 -675 532 -947 512 -533 1263 -773 2000 -640 675
121 1267 559 1573 1160 75 148 123 269 160 411 70 263 65 119 68 2034 3 1674
3 1731 -15 1765 -11 19 -37 45 -58 57 -39 23 -40 23 -542 23 -544 0 -541 0
-592 -55 l-25 -27 -6 -1666 c-6 -1814 -2 -1693 -60 -1863 -93 -272 -316 -494
-587 -585 -356 -119 -733 -35 -988 220 -120 120 -202 267 -255 456 l-24 85 -5
1672 c-5 1671 -5 1672 -26 1700 -47 64 -37 63 -594 63 -461 0 -508 -2 -540
-18z"/>
<path d="M86740 13678 c-18 -13 -43 -36 -54 -51 l-21 -28 -3 -2591 c-2 -2576
-2 -2592 18 -2633 13 -26 34 -49 59 -63 38 -22 43 -22 530 -22 464 0 494 1
529 19 20 11 46 34 57 53 20 32 20 53 23 1071 l2 1037 1100 0 1100 0 2 -1037
3 -1038 23 -36 c43 -70 33 -69 582 -69 488 0 493 0 531 22 25 14 46 37 59 63
20 41 20 57 18 2633 l-3 2591 -21 28 c-11 15 -36 38 -54 51 l-33 22 -495 0
c-483 0 -495 0 -532 -21 -20 -11 -45 -35 -56 -52 -18 -31 -19 -68 -22 -1029
l-2 -998 -1100 0 -1100 0 -2 998 c-3 973 -3 998 -23 1030 -11 18 -38 41 -60
52 -39 19 -64 20 -532 20 l-490 0 -33 -22z"/>
<path d="M72325 6904 c-251 -39 -473 -124 -685 -262 -739 -479 -1001 -1458
-605 -2254 126 -253 307 -466 541 -634 108 -78 336 -193 462 -234 403 -130
861 -111 1241 51 477 204 843 614 986 1105 49 168 67 302 67 499 0 265 -40
466 -137 693 -238 556 -749 950 -1342 1036 -137 20 -401 20 -528 0z m405 -768
c211 -32 387 -122 542 -277 127 -126 210 -272 260 -457 28 -102 31 -333 5
-434 -48 -191 -139 -350 -279 -484 -477 -458 -1241 -320 -1535 276 -58 119
-85 230 -90 376 -8 203 36 376 139 545 65 107 225 267 323 325 208 121 414
163 635 130z"/>
<path d="M80827 6904 c-267 -41 -534 -150 -759 -310 -111 -79 -317 -287 -400
-404 -83 -117 -196 -342 -237 -471 -65 -209 -75 -281 -75 -544 0 -264 10 -338
76 -544 268 -841 1147 -1342 2032 -1160 274 57 573 210 774 397 57 53 62 61
62 100 0 47 -3 51 -169 227 -251 266 -250 265 -293 265 -32 0 -53 -9 -100 -45
-91 -69 -172 -110 -288 -149 -259 -86 -510 -71 -745 43 -250 123 -429 351
-506 647 -20 76 -23 112 -23 244 1 133 5 168 27 252 77 292 257 519 510 643
143 70 224 88 402 89 115 1 167 -3 225 -18 149 -37 287 -105 401 -196 103 -83
99 -85 317 140 228 235 242 252 242 298 0 31 -8 44 -56 89 -234 217 -541 362
-867 408 -128 18 -431 18 -550 -1z"/>
<path d="M84252 6903 c-29 -24 -1552 -3304 -1552 -3340 1 -32 15 -55 47 -71
15 -8 112 -12 320 -12 268 0 302 2 338 19 22 10 48 27 58 39 10 11 62 116 116
233 l97 214 658 0 658 0 92 -201 c50 -110 101 -216 114 -236 40 -64 62 -68
408 -68 l306 0 30 30 c25 26 29 36 25 63 -8 45 -1523 3297 -1549 3324 -18 19
-32 23 -84 23 -44 0 -68 -5 -82 -17z m266 -1863 l178 -385 -177 -3 c-98 -1
-261 -1 -363 0 l-185 3 174 382 c186 410 187 412 192 398 2 -6 84 -183 181
-395z"/>
<path d="M89905 6909 c-157 -24 -303 -76 -440 -155 -95 -55 -262 -218 -313
-306 -95 -161 -134 -307 -134 -493 0 -263 89 -466 296 -670 153 -152 361 -283
623 -391 353 -146 499 -282 511 -474 6 -95 -19 -160 -85 -221 -63 -58 -122
-82 -219 -87 -178 -10 -393 64 -649 222 -76 47 -97 56 -138 56 -36 0 -53 -5
-70 -22 -39 -40 -267 -453 -267 -485 0 -39 20 -65 105 -132 190 -151 440 -253
730 -297 148 -22 420 -23 540 -1 500 90 862 460 900 917 14 166 -19 331 -95
487 -138 280 -404 490 -860 678 -229 94 -347 161 -438 249 -133 127 -147 272
-37 383 103 102 251 118 460 48 89 -30 249 -110 364 -184 181 -115 189 -111
385 182 135 200 140 209 140 259 0 48 -3 54 -44 89 -95 82 -349 217 -515 274
-177 61 -274 77 -490 80 -110 2 -227 0 -260 -6z"/>
<path d="M75265 6866 c-17 -7 -36 -25 -43 -40 -9 -21 -12 -389 -12 -1647 0
-1771 -3 -1667 56 -1689 38 -15 617 -13 649 2 56 25 55 16 55 663 l0 595 565
0 565 0 32 29 33 29 0 300 0 300 -24 26 -24 26 -574 0 -573 0 0 350 0 350 684
0 684 0 31 26 31 26 0 303 0 304 -24 28 -24 28 -1029 2 c-836 2 -1034 0 -1058
-11z"/>
<path d="M86175 6866 c-52 -23 -55 -41 -55 -356 l0 -289 24 -28 24 -28 371 -3
371 -3 0 -1310 0 -1311 29 -29 29 -29 322 0 322 0 29 29 29 29 0 1311 0 1311
355 0 c386 0 399 2 423 55 8 18 12 110 12 306 0 310 -3 328 -61 348 -50 17
-2184 15 -2224 -3z"/> 
</g>
</svg>
